<svg width="218" height="37" viewBox="0 0 218 37" fill="none" xmlns="http://www.w3.org/2000/svg">
<path d="M170.58 14.2173C169.584 15.1706 169.488 16.5434 170.387 17.6111C170.869 18.1831 171.448 18.3738 172.797 18.3738C174.147 18.3738 174.725 18.1831 175.207 17.6111C176.717 15.8189 175.336 13.4165 172.797 13.4165C171.898 13.4165 171.159 13.6834 170.58 14.2173Z" fill="black"/>
<path d="M95.6159 14.1791C92.8204 14.8655 91.3745 16.3146 91.1495 18.6407C90.9246 20.7381 91.7922 22.4541 94.0736 24.2845C95.2946 25.2759 96.0336 26.153 96.0979 26.6869C96.2586 27.9071 95.4231 28.0978 93.2703 27.3351C92.242 26.9538 91.2781 26.7631 91.0853 26.9157C90.6676 27.2207 90.3462 29.2799 90.6033 30.0045C90.6997 30.3477 91.5351 31.0722 92.4348 31.6442C93.945 32.5975 94.3628 32.6738 97.7688 32.6738C100.95 32.6738 101.689 32.5213 103.135 31.7967C105.32 30.6146 106.155 29.4706 106.348 27.4114C106.509 25.9623 106.38 25.581 105.577 24.5133C105.095 23.8269 103.649 22.6447 102.428 21.8821C100.853 20.8906 100.179 20.2423 100.179 19.7466C100.179 18.5263 101.078 18.145 102.781 18.6789C103.906 19.0221 104.388 19.0602 104.709 18.717C105.256 18.1831 105.288 15.9333 104.774 15.4375C103.488 14.2554 98.2186 13.5309 95.6159 14.1791Z" fill="black"/>
<path d="M207.564 14.2173C205.315 14.8274 203.837 16.0095 202.648 18.145C199.178 24.3989 202.552 32.2162 208.946 32.7882C210.231 32.9026 211.581 32.7501 212.32 32.4831C214.023 31.8349 215.983 29.585 216.85 27.3351C217.847 24.8183 217.911 20.8525 216.979 18.6026C215.501 14.9418 211.517 13.1114 207.564 14.2173ZM213.316 17.4586C214.794 18.7551 215.469 20.1279 215.629 22.149C216.047 27.4114 212.513 31.301 208.271 30.2333C205.508 29.5087 203.869 27.6402 203.355 24.5133C202.937 21.8058 204.608 18.1831 206.857 16.9629C208.335 16.2002 212.223 16.4671 213.316 17.4586Z" fill="black"/>
<path d="M205.636 18.6407C205.508 18.7551 205.411 20.7381 205.411 22.9879C205.411 27.4114 205.476 27.5258 207.275 27.5258C208.978 27.5258 209.589 27.1063 209.589 26.0767V25.0853L210.52 26.3055C211.452 27.4877 212.448 27.8309 213.573 27.297C214.023 27.1063 213.991 26.9157 213.412 25.9623C212.834 24.9709 212.802 24.7802 213.252 24.2845C213.509 23.9794 213.83 23.3693 213.926 22.9498C214.216 21.8821 213.155 19.4415 212.159 18.8695C211.324 18.3738 205.99 18.1831 205.636 18.6407ZM211.131 21.9583C211.259 22.6447 210.456 23.7125 209.846 23.7125C209.717 23.7125 209.589 23.1023 209.589 22.3397C209.589 21.1575 209.685 21.005 210.295 21.1194C210.713 21.1957 211.067 21.5389 211.131 21.9583Z" fill="black"/>
<path d="M113.835 19.1365C110.525 19.6703 109.272 20.6999 109.947 22.4159C110.204 23.1405 110.461 23.3311 110.879 23.1405C113.321 21.8821 114.253 21.6914 115.088 22.2253C115.538 22.5303 115.956 23.1786 116.02 23.6362C116.116 24.437 116.02 24.4751 113.835 24.4751C111.232 24.4751 109.722 25.0853 108.758 26.5725C106.059 30.6146 111.65 35.0381 115.217 31.7205C116.052 30.9578 116.052 30.9578 116.245 31.7205C116.438 32.445 116.662 32.4831 119.715 32.4069L122.992 32.2925V27.2589C122.992 22.4922 122.96 22.1871 122.221 21.2719C120.775 19.4415 117.337 18.5645 113.835 19.1365ZM116.084 27.9453C116.084 29.4325 116.052 29.4706 115.056 29.3562C114.22 29.2799 113.963 29.0511 113.899 28.3647C113.706 26.9538 114.06 26.3818 115.12 26.3818C116.02 26.3818 116.084 26.4581 116.084 27.9453Z" fill="black"/>
<path d="M134.014 20.0898C132.857 21.005 132.825 21.005 132.632 20.2805C132.439 19.5941 132.15 19.5178 129.419 19.5178C127.009 19.5178 126.398 19.6322 126.238 20.1279C126.141 20.4711 126.045 23.1023 126.045 26.0005C126.045 32.4831 126.045 32.4831 129.419 32.4831C132.632 32.4831 132.793 32.2543 132.793 27.6783C132.793 24.2082 132.825 24.0557 133.596 23.6362C135.01 22.8735 135.331 23.6743 135.428 28.2122L135.524 32.2925L138.352 32.4069C140.183 32.4831 141.372 32.3687 141.661 32.0637C142.368 31.3773 142.272 23.9413 141.533 22.1871C140.247 19.1365 136.488 18.0687 134.014 20.0898Z" fill="black"/>
<path d="M181.12 19.861C179.513 20.7381 178.742 21.9583 178.742 23.6362C178.742 25.581 179.256 26.3055 181.023 26.9538C182.951 27.6021 183.562 28.1359 183.562 29.0511C183.562 30.0807 182.662 30.2714 180.766 29.6231C178.902 28.9749 178.42 29.0893 178.42 30.157C178.42 31.7967 180.766 32.8645 184.365 32.8645C187.321 32.8645 188.799 32.3306 189.795 30.9197C190.759 29.585 190.92 27.4114 190.149 26.1149C189.892 25.6573 188.96 25.009 188.092 24.6658C186.1 23.9031 185.489 23.1405 186.196 22.3397C186.614 21.8439 186.839 21.8439 188.124 22.5303C188.96 22.9498 189.699 23.1786 189.795 23.0642C189.892 22.9117 189.988 22.3397 189.988 21.7295C189.988 20.8143 189.763 20.5093 188.638 19.8991C186.775 18.9077 182.951 18.8695 181.12 19.861Z" fill="black"/>
<path d="M144.039 20.2042C144.039 21.0431 145.967 26.8013 147.284 29.8901C148.345 32.3687 149.02 32.8645 151.365 32.8645C153.357 32.8645 154.161 32.1399 154.803 29.8138C155.092 28.7842 155.446 27.8309 155.607 27.7165C155.767 27.6021 156.281 28.5173 156.731 29.7757C157.695 32.2925 158.402 32.8645 160.587 32.8645C162.676 32.8645 163.511 32.2543 164.282 30.1189C164.957 28.2503 167.495 19.9754 167.495 19.6703C167.495 19.5559 166.724 19.5178 165.825 19.5941L164.122 19.7085L163.19 22.4541C162.644 23.9794 162.065 25.2378 161.905 25.2378C161.712 25.2378 161.101 23.9794 160.587 22.4541L159.591 19.7085H157.374H155.125L154 22.4541C153.293 24.2463 152.715 25.1997 152.393 25.1234C152.136 25.0853 151.751 24.0938 151.429 22.7591C151.172 21.5007 150.819 20.2423 150.69 19.9754C150.498 19.6703 149.437 19.5178 147.22 19.5178C144.36 19.5178 144.039 19.5941 144.039 20.2042Z" fill="black"/>
<path d="M169.616 20.1279C169.231 21.3101 169.391 31.5298 169.809 32.0255C170.034 32.2925 171.191 32.4831 172.669 32.4831C176.171 32.4831 176.171 32.4831 176.171 26.153C176.171 23.293 176.011 20.6618 175.85 20.2423C175.561 19.5941 175.143 19.5178 172.669 19.5178C170.355 19.5178 169.777 19.6322 169.616 20.1279Z" fill="black"/>
<path d="M27.3899 0.103425C26.1976 0.234372 24.722 0.889106 22.7397 2.21313L21.1002 3.2898L19.9972 2.56232C18.7452 1.73299 17.3591 1.07825 15.6302 0.481716C14.4676 0.0888748 14.3931 0.0888748 11.9785 0.161623C9.19133 0.248921 8.49081 0.394418 6.74696 1.2674C4.49636 2.38772 2.90156 3.62444 2.18613 4.80296C1.35147 6.19973 0.90433 8.32398 0.934139 10.812C0.949044 12.7471 1.06828 13.3145 1.64956 14.1438C2.14142 14.8568 2.32027 14.915 2.7227 14.5221C3.00589 14.2457 3.02079 14.1875 2.82703 13.9692C2.42461 13.5328 2.29047 12.9799 2.14142 11.0593C1.99237 9.05146 2.0967 8.23668 2.7227 6.33068C2.99099 5.50135 3.15494 5.29765 4.18336 4.39557C5.45026 3.27525 6.59792 2.46047 7.25372 2.16948C7.4922 2.08218 8.19272 1.90758 8.81872 1.79118C11.278 1.34015 11.9189 1.2965 13.6776 1.50019C15.183 1.67479 15.5705 1.77664 17.0908 2.44592C18.0298 2.86786 18.8943 3.30435 18.9837 3.42075C19.088 3.53714 19.3712 3.72629 19.6097 3.84269L20.0419 4.07548L18.9837 5.05031C17.7019 6.21428 17.3293 6.73807 17.3293 7.34915C17.3293 7.80019 17.3293 7.80019 17.7913 7.64015C18.0596 7.5383 18.5962 7.13091 18.9986 6.73807C20.9809 4.75931 21.6367 4.17733 22.3224 3.81359C22.7397 3.59534 23.321 3.2316 23.634 2.99881C24.26 2.50412 25.6908 1.80573 26.8087 1.42744C28.2693 0.932755 28.3438 1.51474 27.0322 3.4062C25.7355 5.26855 25.6163 5.70504 26.3466 5.87964C27.0024 6.03968 28.4035 4.74477 29.3425 3.10065C29.5064 2.83876 29.6257 2.21313 29.6704 1.54384L29.7449 0.408968L29.2083 0.190722C28.9102 0.0743256 28.5823 -0.0129728 28.478 0.00157738C28.3737 0.00157738 27.8818 0.0597763 27.3899 0.103425Z" fill="black"/>
<path d="M10.175 6.62168C8.55043 6.89812 7.43258 7.81475 6.73206 9.45886C6.03154 11.0739 5.77816 12.9653 5.77816 16.6318V18.5087L6.5532 18.6833C6.98544 18.7706 8.28215 18.9016 9.42981 18.9598C10.5775 19.018 11.5165 19.1198 11.5165 19.1926C11.5165 19.2508 11.3674 19.3963 11.1886 19.4836C10.8458 19.6436 9.53414 20.4729 7.35806 21.8843C6.74696 22.2771 6.13587 22.6554 5.98682 22.7427C5.76325 22.8591 5.73345 22.99 5.79306 23.4702C5.92721 24.4159 6.43397 26.1473 6.74696 26.7438C7.34315 27.8787 9.26585 29.0572 10.7116 29.1882C11.6059 29.2609 13.2156 28.9408 14.3036 28.4607C15.0787 28.1261 15.3768 27.806 16.1816 26.4383C16.7778 25.4053 16.9567 23.1355 17.0461 14.8131C17.0759 12.4706 16.7778 10.2591 16.3307 9.56071C16.1369 9.26971 15.9879 8.92052 15.9879 8.78958C15.9879 8.48403 14.87 7.48011 14.1248 7.10182C13.8267 6.95632 12.992 6.76717 12.2915 6.67988C10.965 6.51983 10.8159 6.51983 10.175 6.62168Z" fill="black"/>
<path d="M25.825 6.66533C25.6163 6.72353 25.2437 6.78173 25.0052 6.79628C24.7518 6.81083 24.2153 7.02907 23.7979 7.27642C23.3806 7.53831 22.9185 7.8293 22.7695 7.9166C22.6205 8.0039 22.4267 8.19304 22.3373 8.35309C22.2478 8.49859 22.0094 8.89143 21.8007 9.21152C21.4281 9.77896 21.4281 9.83715 21.3536 13.5037C21.3088 15.5406 21.2343 17.2866 21.1747 17.3739C21.0107 17.6067 21.7262 17.7231 23.4253 17.7231C24.722 17.7231 27.4049 18.0432 27.5837 18.2178C27.6135 18.2614 27.4645 18.3778 27.226 18.4651C26.9875 18.5524 26.1231 18.9452 25.3033 19.3235C23.6936 20.0656 22.8291 20.3857 21.8454 20.633C21.3983 20.7348 21.2045 20.8658 21.2045 21.0404C21.2045 21.1713 21.279 22.1025 21.3536 23.0773C21.4877 24.8088 21.5175 24.9106 22.0541 25.7254C22.3671 26.191 22.7546 26.642 22.9185 26.7293C23.0825 26.8166 23.3806 27.0203 23.5893 27.1803C24.3643 27.7769 27.3154 28.1115 28.1501 27.6896C28.3886 27.5732 28.7016 27.4713 28.8506 27.4713C29.1487 27.4713 29.9983 26.6857 30.6839 25.7981C31.6229 24.5905 31.757 23.5429 31.7868 17.5776C31.8017 12.1215 31.7868 11.8014 31.3695 10.681C31.2055 10.2736 31.0416 9.69166 30.982 9.40067C30.8627 8.78958 30.2367 8.04755 29.3276 7.45101C28.3886 6.83993 26.5702 6.41799 25.825 6.66533Z" fill="black"/>
<path d="M31.9955 27.6896C31.9359 27.806 32.0551 28.1843 32.234 28.5189L32.5619 29.1446L31.4738 30.1339C30.356 31.167 27.7328 32.782 25.3033 33.9459C23.4551 34.8335 19.714 35.8956 18.0894 35.9974C16.2114 36.1284 13.7671 35.7646 11.0693 34.9644C8.37158 34.1787 7.99896 34.0041 6.77677 32.9566C5.76326 32.0836 5.2565 31.5016 4.79445 30.6286L4.49636 30.0903L4.91369 29.29C5.28631 28.5189 5.30121 28.4607 5.04783 28.2279C4.80936 27.9951 4.76464 28.0097 4.24298 28.5917C3.94489 28.9263 3.21456 29.6974 2.63327 30.294C1.56014 31.3852 1.32166 31.7926 1.53033 32.1272C1.70918 32.4037 2.27556 32.2 2.99099 31.6034L3.63189 31.0797L4.71993 32.1418C6.44887 33.8441 6.97054 34.266 7.89463 34.7316C9.04229 35.2845 10.9054 35.8519 13.0367 36.2884C15.1383 36.7104 18.8645 36.9141 19.7886 36.6522C20.1165 36.5649 21.0406 36.3612 21.8454 36.2011C23.5296 35.8519 25.0499 35.2118 27.6433 33.7277C30.4156 32.1418 30.9522 31.7635 32.1594 30.6577L33.2624 29.6392L33.8735 29.8138C34.6485 30.0466 35.0062 29.7993 34.41 29.4501C34.2014 29.3191 33.8437 29.1155 33.635 28.9845C33.4263 28.8681 33.0537 28.4753 32.7854 28.1115C32.2936 27.4277 32.1296 27.3404 31.9955 27.6896Z" fill="black"/>
<path d="M19.5203 29.29C18.775 29.5374 18.1938 30.0757 18.2534 30.454C18.313 30.8323 18.7154 30.8905 19.3414 30.6141C20.2059 30.2067 20.5636 30.294 20.8766 30.9924C21.0406 31.3415 21.2045 31.7344 21.2492 31.8653C21.3088 32.0108 21.443 32.1272 21.5473 32.1272C22.0243 32.1272 22.218 31.6471 22.0988 30.7159C22.0392 30.2358 21.9497 29.7556 21.8901 29.6829C21.8007 29.5374 20.5338 29.0718 20.2506 29.0718C20.1612 29.0864 19.8333 29.1736 19.5203 29.29Z" fill="black"/>
</svg>
