<?xml version="1.0" standalone="no"?>
<!DOCTYPE svg PUBLIC "-//W3C//DTD SVG 20010904//EN"
 "http://www.w3.org/TR/2001/REC-SVG-20010904/DTD/svg10.dtd">
<svg version="1.0" xmlns="http://www.w3.org/2000/svg"
 width="577.000000pt" height="433.000000pt" viewBox="0 0 577.000000 433.000000"
 preserveAspectRatio="xMidYMid meet">

<g transform="translate(0.000000,433.000000) scale(0.100000,-0.100000)"
fill="#000000" stroke="none">
<path d="M3515 3421 c-80 -9 -179 -54 -312 -145 l-110 -74 -74 50 c-84 57
-177 102 -293 143 -78 27 -83 27 -245 22 -187 -6 -234 -16 -351 -76 -151 -77
-258 -162 -306 -243 -56 -96 -86 -242 -84 -413 1 -133 9 -172 48 -229 33 -49
45 -53 72 -26 19 19 20 23 7 38 -27 30 -36 68 -46 200 -10 138 -3 194 39 325
18 57 29 71 98 133 85 77 162 133 206 153 16 6 63 18 105 26 165 31 208 34
326 20 101 -12 127 -19 229 -65 63 -29 121 -59 127 -67 7 -8 26 -21 42 -29
l29 -16 -71 -67 c-86 -80 -111 -116 -111 -158 0 -31 0 -31 31 -20 18 7 54 35
81 62 133 136 177 176 223 201 28 15 67 40 88 56 42 34 138 82 213 108 98 34
103 -6 15 -136 -87 -128 -95 -158 -46 -170 44 -11 138 78 201 191 11 18 19 61
22 107 l5 78 -36 15 c-20 8 -42 14 -49 13 -7 0 -40 -4 -73 -7z"/>
<path d="M2360 2973 c-109 -19 -184 -82 -231 -195 -47 -111 -64 -241 -64 -493
l0 -129 52 -12 c29 -6 116 -15 193 -19 77 -4 140 -11 140 -16 0 -4 -10 -14
-22 -20 -23 -11 -111 -68 -257 -165 -41 -27 -82 -53 -92 -59 -15 -8 -17 -17
-13 -50 9 -65 43 -184 64 -225 40 -78 169 -159 266 -168 60 -5 168 17 241 50
52 23 72 45 126 139 40 71 52 227 58 799 2 161 -18 313 -48 361 -13 20 -23 44
-23 53 0 21 -75 90 -125 116 -20 10 -76 23 -123 29 -89 11 -99 11 -142 4z"/>
<path d="M3410 2970 c-14 -4 -39 -8 -55 -9 -17 -1 -53 -16 -81 -33 -28 -18
-59 -38 -69 -44 -10 -6 -23 -19 -29 -30 -6 -10 -22 -37 -36 -59 -25 -39 -25
-43 -30 -295 -3 -140 -8 -260 -12 -266 -11 -16 37 -24 151 -24 87 0 267 -22
279 -34 2 -3 -8 -11 -24 -17 -16 -6 -74 -33 -129 -59 -108 -51 -166 -73 -232
-90 -30 -7 -43 -16 -43 -28 0 -9 5 -73 10 -140 9 -119 11 -126 47 -182 21 -32
47 -63 58 -69 11 -6 31 -20 45 -31 52 -41 250 -64 306 -35 16 8 37 15 47 15
20 0 77 54 123 115 63 83 72 155 74 565 1 375 0 397 -28 474 -11 28 -22 68
-26 88 -8 42 -50 93 -111 134 -63 42 -185 71 -235 54z"/>
<path d="M3824 1525 c-4 -8 4 -34 16 -57 l22 -43 -73 -68 c-75 -71 -251 -182
-414 -262 -124 -61 -375 -134 -484 -141 -126 -9 -290 16 -471 71 -181 54 -206
66 -288 138 -68 60 -102 100 -133 160 l-20 37 28 55 c25 53 26 57 9 73 -16 16
-19 15 -54 -25 -20 -23 -69 -76 -108 -117 -72 -75 -88 -103 -74 -126 12 -19
50 -5 98 36 l43 36 73 -73 c116 -117 151 -146 213 -178 77 -38 202 -77 345
-107 141 -29 391 -43 453 -25 22 6 84 20 138 31 113 24 215 68 389 170 186
109 222 135 303 211 l74 70 41 -12 c52 -16 76 1 36 25 -14 9 -38 23 -52 32
-14 8 -39 35 -57 60 -33 47 -44 53 -53 29z"/>
<path d="M2987 1415 c-50 -17 -89 -54 -85 -80 4 -26 31 -30 73 -11 58 28 82
22 103 -26 11 -24 22 -51 25 -60 4 -10 13 -18 20 -18 32 0 45 33 37 97 -4 33
-10 66 -14 71 -6 10 -91 42 -110 42 -6 -1 -28 -7 -49 -15z"/>
</g>
</svg>
