<?xml version="1.0" standalone="no"?>
<!DOCTYPE svg PUBLIC "-//W3C//DTD SVG 20010904//EN"
 "http://www.w3.org/TR/2001/REC-SVG-20010904/DTD/svg10.dtd">
<svg version="1.0" xmlns="http://www.w3.org/2000/svg"
 width="577.000000pt" height="433.000000pt" viewBox="0 0 577.000000 433.000000"
 preserveAspectRatio="xMidYMid meet">

<g transform="translate(0.000000,433.000000) scale(0.100000,-0.100000)"
fill="#000000" stroke="none">
<path d="M2467 3639 c-80 -19 -215 -106 -241 -157 -43 -85 -54 -272 -19 -320
20 -26 40 -28 35 -2 -41 215 -8 314 130 397 103 62 270 63 384 4 96 -49 94
-43 41 -100 -45 -48 -60 -81 -36 -81 6 0 37 25 68 57 92 93 264 193 288 169 4
-4 1 -19 -8 -34 -65 -112 -64 -112 -50 -121 36 -23 115 80 116 149 l0 45 -47
3 c-54 4 -99 -13 -185 -69 l-62 -41 -32 23 c-17 12 -66 37 -108 55 -66 30 -86
34 -156 33 -44 -1 -97 -5 -118 -10z"/>
<path d="M2450 3398 c-46 -30 -81 -105 -90 -191 -4 -38 -12 -73 -16 -77 -5 -5
-97 -57 -204 -115 -214 -117 -275 -161 -297 -213 -30 -72 -66 -403 -45 -416
23 -14 35 29 43 157 12 190 23 234 68 275 49 45 410 262 436 262 2 0 5 -19 7
-42 l3 -43 100 -10 100 -10 -78 -50 c-130 -83 -129 -82 -121 -123 21 -113 85
-177 178 -177 84 0 132 21 165 74 27 44 29 54 35 191 4 80 7 197 7 262 l1 116
50 21 c28 12 62 21 75 21 l24 0 -3 -139 -3 -138 99 -6 c55 -4 103 -10 108 -15
8 -8 -122 -71 -179 -87 -21 -6 -23 -13 -23 -67 0 -73 28 -137 71 -162 41 -24
124 -36 165 -23 18 5 49 26 68 46 46 47 56 99 56 282 0 109 3 139 13 139 11 0
175 -119 381 -278 123 -94 134 -117 97 -197 -25 -55 -75 -101 -192 -176 -55
-35 -182 -118 -282 -184 -325 -213 -300 -200 -393 -198 -78 1 -83 3 -160 51
-108 67 -142 88 -189 113 -40 22 -122 80 -205 145 -25 19 -65 49 -90 65 -25
16 -61 40 -80 54 -19 13 -63 43 -98 67 -35 24 -85 60 -112 81 -26 20 -53 37
-59 37 -14 0 -14 -25 -1 -50 10 -18 192 -159 300 -232 30 -21 64 -44 75 -51
11 -8 33 -22 49 -33 16 -10 39 -26 51 -34 154 -105 261 -170 369 -224 78 -40
85 -41 178 -41 85 0 100 3 125 23 80 64 370 255 656 433 75 47 77 48 77 24 0
-29 8 -31 36 -11 16 12 20 31 25 122 7 122 1 140 -60 187 -60 47 -213 164
-260 199 -23 18 -50 40 -59 48 -8 8 -43 33 -77 55 -104 69 -109 75 -131 150
-17 61 -25 73 -63 100 -37 26 -51 30 -107 29 -52 -1 -71 -6 -106 -30 -35 -23
-54 -29 -98 -29 -42 0 -62 -5 -84 -22 -38 -30 -56 -29 -68 5 -18 48 -69 74
-151 79 -63 4 -76 2 -107 -19z"/>
<path d="M3441 2829 c-57 -10 -109 -23 -114 -28 -9 -9 4 -85 29 -173 4 -14 -1
-18 -18 -18 -31 0 -45 -11 -56 -40 -14 -38 11 -80 47 -80 28 0 81 39 81 60 0
6 -12 52 -26 101 -14 50 -23 93 -20 96 3 3 44 14 92 24 124 25 128 28 102 61
-12 13 -24 13 -117 -3z"/>
<path d="M2840 2594 c0 -9 17 -23 40 -32 22 -9 40 -20 40 -24 0 -4 -11 -15
-25 -26 -26 -20 -33 -42 -15 -42 6 0 25 16 43 36 51 59 136 84 156 46 12 -23
-3 -105 -29 -155 -24 -45 -90 -136 -113 -155 -27 -23 -69 -10 -95 28 -30 45
-45 50 -40 14 2 -23 -3 -32 -29 -49 -56 -35 -37 -60 24 -30 26 13 34 13 69 -1
54 -21 83 -8 131 58 74 101 113 189 113 254 0 60 -66 98 -122 69 -41 -20 -56
-19 -103 5 -47 24 -45 24 -45 4z"/>
<path d="M3913 2591 c-64 -16 -138 -93 -169 -176 -7 -18 -17 -28 -25 -26 -42
12 -60 12 -72 2 -8 -6 -20 -49 -27 -95 -18 -115 -8 -209 31 -314 11 -29 55
-50 76 -36 12 7 30 -4 80 -55 l64 -64 49 6 c37 5 58 1 90 -14 104 -50 189 -29
235 60 13 25 44 63 69 84 90 74 115 185 67 292 -15 34 -23 73 -24 125 -3 86
-20 123 -77 165 -51 38 -103 49 -160 35 -32 -8 -54 -8 -67 -2 -27 15 -104 22
-140 13z m119 -46 c27 -14 55 -31 62 -38 51 -51 75 -220 41 -291 -28 -58 -88
-108 -137 -113 -37 -4 -49 -1 -76 22 -29 24 -32 32 -32 81 0 36 7 69 21 95 32
63 19 83 -15 24 -25 -42 -30 -61 -30 -122 -1 -62 2 -75 23 -97 14 -14 30 -26
38 -26 20 0 16 -44 -7 -70 -27 -32 -35 -66 -21 -96 15 -33 15 -34 -13 -34 -35
0 -69 32 -105 100 -27 50 -35 59 -47 49 -8 -6 -14 -20 -14 -30 0 -12 -7 -19
-20 -19 -15 0 -23 13 -37 58 -21 69 -25 261 -5 305 11 27 13 27 34 13 37 -27
52 -20 71 34 24 68 74 129 127 156 58 30 81 30 142 -1z m225 -16 c18 -12 43
-40 55 -62 67 -133 -71 -407 -206 -407 -36 0 -38 12 -9 40 46 44 83 140 83
217 0 76 -19 150 -50 193 -26 36 -25 38 8 43 42 7 81 -1 119 -24z m123 -387
c0 -64 -26 -110 -96 -167 -62 -51 -125 -61 -212 -30 -80 27 -102 44 -105 80
-2 27 1 30 32 33 19 2 37 -2 41 -8 13 -21 84 -24 121 -5 68 35 98 67 140 148
l43 82 18 -40 c9 -22 18 -64 18 -93z m-304 -242 c75 -23 97 -24 126 -9 30 16
35 2 9 -25 -41 -44 -75 -52 -139 -31 -125 39 -168 78 -144 130 l12 26 35 -35
c24 -24 56 -42 101 -56z"/>
<path d="M2959 2481 c-48 -37 -94 -166 -63 -178 22 -8 50 23 64 72 10 35 10
48 1 59 -10 11 -7 19 10 35 29 27 19 37 -12 12z"/>
<path d="M1853 2475 c-7 -20 21 -51 77 -83 25 -15 91 -56 147 -92 106 -67 186
-117 287 -176 32 -18 90 -58 130 -87 212 -158 250 -177 351 -177 39 0 88 5
110 11 22 6 105 54 185 107 191 126 359 232 368 232 15 0 92 80 92 95 0 8 -4
15 -8 15 -5 0 -87 -51 -183 -114 -462 -303 -431 -286 -524 -286 -77 0 -162 24
-208 59 -23 17 -60 41 -82 52 -22 12 -56 35 -76 50 -20 16 -77 56 -125 89 -49
32 -114 77 -145 98 -30 21 -91 58 -135 82 -43 24 -90 51 -104 60 -117 80 -146
92 -157 65z"/>
<path d="M3178 2463 c-61 -7 -47 -29 25 -42 35 -6 71 -11 80 -11 27 0 31 22 7
42 -22 18 -35 19 -112 11z"/>
<path d="M1468 2367 c-93 -30 -181 -151 -194 -267 -5 -43 -1 -65 15 -103 15
-34 19 -60 15 -85 -3 -23 0 -51 10 -74 22 -50 107 -133 153 -149 21 -6 57 -25
80 -40 48 -33 128 -55 166 -45 14 3 39 18 56 32 17 14 47 28 68 31 56 9 87 27
127 76 28 34 37 57 46 112 13 80 15 85 40 85 61 0 52 156 -19 312 -17 36 -41
74 -53 82 -28 20 -68 21 -93 3 -15 -12 -25 -11 -69 6 -38 15 -77 21 -156 22
-58 1 -116 5 -130 8 -14 3 -42 1 -62 -6z m90 -25 c9 -6 6 -11 -11 -19 -25 -12
-99 -114 -101 -141 -3 -35 26 -20 58 31 20 30 52 69 73 86 35 29 42 31 121 31
90 0 105 -5 169 -57 42 -35 60 -32 48 7 -5 16 -2 20 17 20 31 0 61 -46 92
-144 29 -88 34 -157 11 -176 -12 -10 -17 -5 -29 25 -24 57 -40 35 -32 -44 9
-92 -8 -165 -51 -218 -27 -33 -74 -63 -99 -63 -2 0 6 16 17 35 11 19 19 42 17
52 -3 15 -9 12 -33 -17 -83 -97 -111 -120 -148 -120 -20 0 -55 8 -78 17 l-42
16 54 24 c59 26 99 59 99 81 0 9 -11 5 -32 -14 -38 -31 -104 -63 -133 -64 -63
0 -206 116 -218 177 -3 16 -4 29 -3 31 2 1 16 -5 32 -13 45 -22 140 -30 169
-15 14 7 25 17 25 21 0 4 -41 6 -91 5 l-91 -1 -32 55 c-55 96 -39 222 41 326
43 57 140 92 181 66z"/>
<path d="M3100 2365 c0 -6 117 -65 130 -65 25 0 8 39 -24 54 -31 15 -106 23
-106 11z"/>
<path d="M3485 2085 l7 -64 -39 -41 c-33 -35 -48 -43 -108 -56 -40 -8 -112
-14 -170 -13 -63 2 -109 -2 -123 -10 -26 -14 -112 -126 -112 -146 0 -8 -12
-27 -26 -44 -36 -44 -119 -67 -181 -52 -101 26 -162 97 -163 191 0 92 -6 96
-155 93 l-127 -3 -57 58 c-32 31 -60 63 -63 71 -6 21 -38 6 -38 -19 0 -24 103
-141 136 -154 13 -6 65 -6 129 0 59 5 111 7 116 4 5 -3 15 -40 23 -83 19 -100
27 -111 96 -156 72 -47 162 -69 212 -52 50 17 106 67 140 128 17 29 46 65 64
80 33 25 39 26 192 27 l157 1 54 34 c29 19 64 51 78 72 23 34 24 44 18 101 -7
63 -26 98 -53 98 -12 0 -13 -11 -7 -65z"/>
<path d="M3580 1935 c-19 -14 -73 -46 -120 -70 -47 -24 -98 -50 -115 -59 -16
-9 -35 -16 -41 -16 -6 0 -28 -11 -48 -25 -65 -44 -305 -164 -350 -176 -32 -8
-73 -8 -148 0 -115 12 -141 23 -512 221 -93 49 -177 90 -188 90 -21 0 -25 -32
-5 -47 6 -6 71 -41 142 -78 72 -37 169 -90 217 -117 l87 -49 -14 -47 c-8 -26
-15 -48 -15 -49 0 -12 -29 3 -67 34 -43 35 -49 37 -134 41 -82 4 -93 2 -146
-24 -31 -16 -81 -51 -110 -79 -99 -92 -130 -243 -88 -430 19 -86 71 -185 110
-211 50 -33 126 -44 305 -44 179 0 270 9 351 36 51 16 69 44 89 136 10 47 -4
146 -29 208 -33 83 -115 160 -193 181 -43 11 -49 29 -16 44 17 8 25 25 37 80
8 39 15 71 16 73 2 2 33 -10 71 -25 61 -25 82 -28 179 -28 l110 0 30 -34 c45
-51 46 -55 21 -90 -27 -37 -56 -150 -56 -221 0 -56 31 -151 62 -190 13 -15 38
-53 56 -83 28 -46 45 -61 102 -91 75 -40 110 -44 192 -22 75 20 185 73 207
100 8 9 19 16 25 16 21 0 168 153 187 195 10 22 29 52 41 68 19 23 23 43 26
128 6 144 -4 172 -92 251 -85 78 -131 103 -214 118 -121 22 -244 -9 -336 -85
-24 -19 -47 -35 -53 -35 -5 0 -22 14 -38 30 -28 29 -28 30 -9 45 10 8 119 67
242 131 223 116 297 167 290 200 -5 27 -21 26 -58 -1z m15 -336 c22 -6 48 -18
58 -27 17 -15 14 -17 -35 -29 -54 -14 -122 -42 -168 -69 -14 -8 -39 -21 -56
-29 -17 -8 -36 -21 -44 -29 -7 -9 -18 -16 -25 -16 -6 0 -34 -23 -61 -51 -27
-27 -64 -64 -81 -81 -18 -18 -33 -37 -33 -44 0 -7 -13 -25 -30 -41 -16 -15
-30 -31 -30 -35 0 -22 -43 -119 -50 -111 -4 4 -16 43 -25 85 -16 74 -16 79 4
160 20 82 21 84 101 160 88 84 192 143 278 158 70 12 152 11 197 -1z m-1236
-73 l35 -21 -59 -10 c-55 -9 -60 -12 -69 -42 -7 -25 -5 -38 8 -57 15 -23 20
-25 88 -20 48 2 64 1 48 -4 -48 -17 -115 -54 -143 -81 -38 -35 -62 -80 -49
-93 7 -7 30 10 69 50 67 68 109 85 211 84 100 -1 169 -50 216 -152 34 -76 40
-132 22 -210 -17 -71 -35 -92 -94 -111 -51 -16 -446 -24 -498 -10 -154 41
-234 227 -193 446 14 77 38 123 87 167 52 47 70 56 150 77 76 21 120 17 171
-13z m114 -143 c-7 -2 -19 -2 -25 0 -7 3 -2 5 12 5 14 0 19 -2 13 -5z"/>
</g>
</svg>
