<?xml version="1.0" standalone="no"?>
<!DOCTYPE svg PUBLIC "-//W3C//DTD SVG 20010904//EN"
 "http://www.w3.org/TR/2001/REC-SVG-20010904/DTD/svg10.dtd">
<svg version="1.0" xmlns="http://www.w3.org/2000/svg"
 width="666.000000pt" height="375.000000pt" viewBox="0 0 666.000000 375.000000"
 preserveAspectRatio="xMidYMid meet">

<g transform="translate(0.000000,375.000000) scale(0.100000,-0.100000)"
fill="#000000" stroke="none">
<path d="M2983 3480 c-102 -21 -206 -106 -230 -189 -19 -68 -18 -187 3 -218
17 -27 39 -22 25 5 -4 9 -11 45 -15 80 -12 112 32 201 129 257 83 47 219 50
316 7 35 -16 70 -36 77 -45 11 -13 9 -19 -18 -39 -30 -22 -56 -65 -46 -75 3
-3 31 20 63 50 32 31 75 67 96 81 41 28 120 66 136 66 19 0 12 -32 -19 -81
-30 -49 -26 -68 9 -49 35 18 64 70 65 114 1 40 0 41 -36 44 -38 3 -79 -14
-164 -68 l-46 -29 -37 23 c-109 68 -204 88 -308 66z"/>
<path d="M2963 3271 c-43 -27 -69 -82 -78 -163 l-7 -66 -152 -82 c-233 -125
-256 -141 -284 -207 -24 -57 -51 -318 -34 -335 17 -17 23 8 33 135 11 149 21
192 50 223 35 37 348 224 375 224 9 0 14 -12 14 -34 l0 -34 85 -7 c47 -4 85
-11 85 -16 0 -5 -4 -9 -9 -9 -17 0 -161 -101 -161 -114 0 -7 7 -36 16 -65 13
-44 22 -57 62 -82 53 -34 71 -35 141 -13 72 24 90 58 100 188 5 56 8 157 7
225 l-1 124 43 18 c24 11 55 19 68 19 l24 0 0 -119 0 -118 81 -6 c45 -3 85 -9
90 -14 4 -4 -31 -25 -79 -45 l-87 -37 -3 -47 c-4 -65 2 -86 38 -121 55 -54
157 -54 209 -1 40 41 51 95 51 242 0 75 4 126 10 126 5 0 64 -42 131 -92 67
-51 161 -122 208 -158 l86 -65 -1 -47 c0 -38 -7 -54 -38 -92 -20 -25 -60 -61
-89 -79 -162 -105 -208 -135 -324 -210 -243 -157 -222 -147 -301 -147 -65 0
-75 3 -129 39 -32 21 -76 48 -98 60 -91 50 -136 78 -157 97 -13 11 -41 32 -63
47 -22 15 -63 44 -92 65 -28 20 -84 59 -125 87 -40 27 -97 67 -126 88 -29 22
-55 37 -59 33 -11 -11 15 -54 44 -73 15 -9 48 -34 73 -54 51 -41 128 -95 315
-219 168 -112 184 -121 285 -172 75 -37 93 -42 152 -41 48 0 75 6 96 19 17 11
138 91 271 179 132 88 269 176 303 196 57 33 63 35 66 18 4 -21 10 -23 30 -10
9 6 15 39 17 107 l3 99 -47 45 c-44 41 -107 92 -181 145 -15 11 -64 48 -109
83 -45 34 -85 62 -89 62 -21 1 -59 52 -74 100 -10 31 -27 66 -38 78 -45 48
-144 49 -209 2 -23 -16 -39 -20 -61 -15 -22 5 -42 1 -71 -14 -51 -27 -67 -26
-74 2 -14 56 -151 87 -212 48z"/>
<path d="M3788 2785 c-97 -21 -96 -20 -68 -105 22 -66 22 -80 -3 -80 -29 0
-47 -18 -47 -46 0 -52 26 -68 70 -44 38 20 40 42 15 125 -14 44 -21 82 -17 86
4 4 42 14 85 22 86 16 92 19 84 42 -7 18 -38 18 -119 0z"/>
<path d="M3318 2570 c12 -10 28 -20 35 -23 8 -3 4 -13 -12 -31 -14 -14 -20
-26 -14 -26 5 0 20 12 34 26 49 53 119 71 138 36 22 -41 -53 -207 -119 -267
-26 -24 -67 -12 -88 25 -19 34 -37 40 -29 10 4 -15 -3 -27 -23 -42 -37 -27
-29 -43 11 -22 25 12 36 13 63 3 64 -23 90 0 168 143 33 61 46 132 27 154 -23
28 -57 35 -93 20 -28 -11 -39 -11 -72 0 -51 18 -54 17 -26 -6z"/>
<path d="M4195 2575 c-45 -16 -97 -70 -122 -127 -16 -36 -19 -38 -57 -35 l-40
2 -14 -65 c-25 -121 4 -289 54 -312 17 -8 28 -8 35 -1 8 8 26 -5 63 -43 48
-50 56 -54 97 -54 25 0 70 -9 102 -20 31 -11 64 -20 73 -20 29 0 79 38 101 77
12 21 40 56 63 78 23 22 48 53 56 68 21 39 20 113 -1 167 -18 45 -22 69 -24
147 -1 34 -8 51 -37 83 -45 50 -99 67 -164 52 -25 -6 -49 -7 -55 -2 -21 16
-90 19 -130 5z m110 -24 c75 -34 109 -100 108 -208 0 -55 -4 -67 -37 -112 -99
-134 -241 -55 -176 98 27 62 21 78 -8 22 -43 -82 -34 -169 19 -193 32 -14 31
-32 -4 -80 -18 -24 -19 -40 -6 -87 6 -22 -14 -22 -48 -1 -19 11 -43 41 -58 70
-22 43 -29 49 -41 40 -7 -7 -14 -19 -14 -26 0 -25 -27 -15 -38 14 -35 90 -43
214 -17 276 15 35 17 36 38 21 33 -23 42 -19 55 30 19 73 108 155 167 155 11
0 38 -9 60 -19z m190 -16 c55 -32 69 -67 63 -154 -10 -137 -125 -277 -204
-247 -13 5 -11 11 12 39 15 17 35 50 45 72 33 72 20 233 -22 271 -24 21 -24
31 -1 37 39 10 67 6 107 -18z m101 -260 c35 -83 5 -164 -83 -228 -53 -38 -108
-43 -177 -16 -66 27 -88 47 -84 78 4 32 37 40 70 17 12 -9 34 -16 47 -16 35 0
127 58 141 89 17 39 60 111 66 111 3 0 12 -16 20 -35z m-340 -226 c40 -44 156
-79 194 -59 30 16 36 6 13 -23 -29 -39 -72 -50 -122 -32 -102 36 -140 71 -126
115 8 25 17 25 41 -1z"/>
<path d="M2455 2490 c-11 -17 18 -48 79 -84 34 -20 111 -67 171 -106 61 -38
131 -81 156 -94 25 -14 67 -41 92 -60 111 -85 239 -166 279 -177 52 -14 147
-5 191 17 17 10 102 63 187 119 85 56 182 118 215 138 65 40 115 82 115 97 0
18 -7 15 -141 -74 -24 -16 -75 -49 -114 -74 -38 -25 -109 -71 -157 -102 -48
-32 -104 -64 -124 -70 -46 -16 -158 -7 -205 14 -48 23 -301 190 -389 258 -19
15 -84 55 -145 89 -60 34 -123 72 -140 84 -38 28 -63 37 -70 25z"/>
<path d="M3375 2465 c-50 -65 -53 -157 -3 -108 15 16 21 35 22 70 1 26 5 54 9
61 17 26 -3 10 -28 -23z"/>
<path d="M3583 2473 c-46 -6 -41 -20 10 -28 23 -3 49 -8 57 -11 8 -2 22 1 30
6 13 9 12 12 -4 25 -20 15 -30 16 -93 8z"/>
<path d="M2105 2387 c-39 -18 -102 -88 -126 -141 -23 -50 -24 -124 -4 -173 9
-21 13 -49 10 -63 -12 -56 55 -154 127 -186 24 -10 63 -31 87 -46 24 -15 63
-30 87 -34 37 -5 48 -2 86 24 24 17 60 33 81 37 26 4 51 19 77 45 40 40 44 50
55 133 5 37 10 47 25 47 60 0 50 150 -17 279 -33 63 -68 82 -109 60 -21 -11
-32 -10 -72 4 -41 15 -83 19 -172 17 -8 -1 -35 2 -60 5 -28 3 -56 0 -75 -8z
m99 -16 c3 -5 -5 -16 -19 -25 -30 -20 -75 -88 -75 -113 1 -14 6 -12 23 11 12
15 41 48 63 72 l41 44 85 0 c82 0 87 -1 131 -35 25 -19 48 -31 52 -26 3 5 1
12 -5 16 -18 11 -10 25 15 25 31 0 56 -38 85 -128 22 -67 28 -121 16 -140 -12
-21 -34 -13 -40 14 -12 46 -21 15 -21 -74 -1 -93 -13 -128 -57 -169 -12 -12
-36 -25 -51 -28 l-28 -7 22 36 c33 56 2 44 -47 -17 -22 -29 -52 -56 -66 -61
-29 -10 -87 -1 -113 18 -17 12 -13 15 38 39 30 14 61 36 67 49 l13 23 -24 -21
c-88 -79 -174 -70 -266 27 -32 34 -56 82 -47 92 3 3 21 -1 39 -9 40 -16 123
-18 145 -3 11 7 0 9 -41 4 -85 -9 -104 -1 -134 58 -26 54 -32 117 -16 174 14
50 72 130 105 146 34 17 102 22 110 8z"/>
<path d="M3530 2386 c0 -4 86 -46 95 -46 12 0 4 24 -12 36 -16 12 -83 20 -83
10z"/>
<path d="M3847 2204 c-4 -4 -4 -29 -1 -56 6 -46 5 -49 -32 -86 -47 -47 -119
-64 -251 -61 l-86 3 -38 -44 c-20 -24 -48 -64 -61 -89 -17 -34 -35 -52 -68
-68 -57 -30 -93 -29 -156 3 -61 31 -94 81 -94 144 0 77 -6 80 -133 80 l-112 0
-46 48 c-25 26 -48 54 -51 62 -8 23 -32 -3 -24 -26 3 -11 28 -43 55 -72 l50
-54 109 7 110 7 12 -58 c7 -33 18 -73 25 -89 27 -66 161 -125 237 -105 42 12
101 66 129 121 10 21 34 46 52 58 30 18 47 20 153 18 135 -2 167 8 229 71 32
33 35 42 35 93 0 56 -25 111 -43 93z"/>
<path d="M3914 2018 c-15 -13 -87 -53 -159 -89 -71 -36 -161 -83 -200 -104
-200 -108 -214 -112 -342 -96 -80 10 -102 19 -243 90 -85 44 -195 102 -245
130 -85 47 -116 53 -102 18 3 -8 89 -59 191 -113 102 -55 186 -103 186 -109 0
-26 -22 -85 -32 -85 -5 0 -29 15 -51 33 -39 30 -45 32 -127 32 -92 0 -120 -12
-204 -85 -48 -42 -89 -151 -88 -234 1 -86 29 -192 68 -257 31 -52 38 -57 92
-73 117 -32 472 -14 536 28 16 10 28 34 38 75 14 54 14 68 1 133 -24 112 -75
178 -168 213 -48 19 -56 33 -27 51 10 7 23 36 31 73 11 51 17 61 30 55 97 -41
117 -45 203 -43 l89 2 34 -40 34 -40 -23 -32 c-15 -19 -28 -60 -36 -108 -19
-107 -6 -161 64 -271 47 -74 63 -91 109 -116 49 -26 61 -28 118 -24 69 6 212
66 223 93 3 8 12 15 19 15 18 0 136 118 156 157 9 17 25 43 36 59 25 35 34
187 14 237 -21 54 -98 127 -169 160 -56 25 -77 30 -145 29 -94 0 -148 -18
-219 -74 l-49 -39 -29 28 c-15 15 -28 30 -28 34 0 8 255 148 350 192 59 28
123 83 117 100 -6 20 -23 18 -53 -5z m64 -294 c29 -19 28 -34 -4 -34 -24 0
-107 -29 -149 -53 -11 -6 -33 -18 -50 -27 -58 -31 -90 -56 -147 -115 -84 -88
-110 -126 -142 -208 -9 -21 -20 -36 -25 -33 -17 11 -34 118 -27 174 9 79 29
117 94 180 72 71 160 119 249 135 75 14 163 6 201 -19z m-1105 -41 c44 -19 48
-33 10 -33 -68 0 -98 -34 -72 -82 10 -19 17 -20 98 -15 82 5 84 4 40 -8 -65
-17 -147 -64 -170 -96 -42 -59 -12 -67 37 -10 45 52 94 73 168 74 66 0 124
-22 163 -65 24 -26 57 -96 68 -147 10 -45 -14 -147 -40 -170 -34 -31 -106 -41
-290 -41 -220 0 -253 11 -311 101 -40 63 -57 143 -50 227 15 157 64 225 196
266 78 25 91 25 153 -1z"/>
<path d="M4004 875 c-20 -30 -11 -58 22 -73 37 -17 68 -15 98 9 52 41 21 89
-57 89 -38 0 -49 -4 -63 -25z"/>
<path d="M2025 869 c-52 -27 -65 -45 -65 -88 1 -50 18 -76 75 -114 59 -38 69
-73 20 -71 -16 1 -46 5 -66 9 -34 7 -37 5 -43 -20 -17 -66 49 -100 189 -100
138 1 218 47 218 126 0 37 -30 70 -99 106 -86 45 -85 79 2 69 51 -6 54 -5 60
19 15 60 -33 85 -163 85 -70 0 -97 -4 -128 -21z"/>
<path d="M4930 875 c-114 -52 -157 -193 -91 -298 42 -65 96 -91 187 -92 61 0
76 4 113 28 55 37 91 110 91 187 0 67 -22 113 -73 154 -35 28 -47 31 -115 34
-53 1 -88 -3 -112 -13z m173 -50 c18 -8 43 -31 56 -50 20 -29 23 -44 19 -90
-13 -153 -180 -206 -287 -91 -34 36 -40 117 -13 166 38 70 148 102 225 65z"/>
<path d="M4914 777 c-3 -8 -4 -49 -2 -93 l3 -79 53 -3 c47 -3 52 -1 52 17 0
27 12 27 28 1 8 -14 23 -20 47 -20 38 0 47 18 20 40 -13 11 -13 14 0 27 23 23
19 76 -8 101 -20 19 -35 22 -105 22 -60 0 -84 -4 -88 -13z m141 -67 c0 -16 -6
-26 -17 -28 -14 -3 -18 3 -18 28 0 25 4 31 18 28 11 -2 17 -12 17 -28z"/>
<path d="M2497 770 c-38 -12 -57 -29 -57 -52 0 -26 23 -32 59 -14 42 22 77 20
95 -6 9 -12 16 -25 16 -29 0 -4 -36 -9 -81 -11 -74 -3 -83 -6 -105 -31 -24
-28 -32 -79 -16 -104 4 -7 25 -20 46 -28 41 -17 98 -14 124 7 9 8 19 8 35 -1
13 -7 53 -11 97 -9 l75 3 0 107 c0 99 -2 108 -24 132 -14 14 -41 30 -60 36
-43 12 -165 12 -204 0z m97 -146 c20 -8 21 -47 2 -63 -32 -27 -64 27 -34 57
14 14 12 14 32 6z"/>
<path d="M3071 760 c-30 -19 -34 -19 -45 -5 -9 13 -27 15 -86 13 l-75 -3 -3
-124 c-2 -82 1 -128 9 -137 13 -16 125 -19 149 -4 11 6 16 32 18 90 3 65 8 82
22 90 29 15 39 -9 42 -100 l3 -85 80 0 80 0 3 107 c3 105 2 108 -25 138 -23
26 -38 32 -83 36 -45 4 -61 1 -89 -16z"/>
<path d="M4297 768 c-39 -11 -77 -55 -77 -89 0 -28 38 -66 74 -73 39 -7 61
-29 52 -51 -7 -19 -34 -19 -79 0 -38 16 -47 12 -47 -20 0 -30 39 -46 127 -52
55 -5 84 -2 118 11 51 20 65 39 65 90 0 39 -31 70 -81 81 -33 8 -48 30 -30 48
8 8 20 6 47 -7 40 -18 58 -11 52 20 -8 42 -136 66 -221 42z"/>
<path d="M3333 737 c5 -32 81 -211 99 -234 14 -17 71 -27 113 -19 32 6 39 14
61 64 l26 57 17 -42 c23 -59 41 -74 95 -80 70 -8 87 9 134 129 22 57 44 115
47 131 7 26 6 27 -34 27 -40 0 -42 -2 -61 -47 -25 -60 -35 -78 -45 -78 -4 0
-17 27 -30 60 l-22 60 -61 3 -61 3 -31 -68 c-29 -64 -32 -67 -46 -49 -8 11
-14 27 -14 36 0 10 -5 31 -11 49 l-11 31 -85 0 -86 0 6 -33z"/>
<path d="M3986 748 c-11 -43 -7 -233 6 -246 7 -7 40 -12 80 -12 84 0 88 6 88
137 0 147 2 143 -90 143 -72 0 -78 -2 -84 -22z"/>
</g>
</svg>
