<?xml version="1.0" standalone="no"?>
<!DOCTYPE svg PUBLIC "-//W3C//DTD SVG 20010904//EN"
 "http://www.w3.org/TR/2001/REC-SVG-20010904/DTD/svg10.dtd">
<svg version="1.0" xmlns="http://www.w3.org/2000/svg"
 width="666.000000pt" height="375.000000pt" viewBox="0 0 666.000000 375.000000"
 preserveAspectRatio="xMidYMid meet">

<g transform="translate(0.000000,375.000000) scale(0.100000,-0.100000)"
fill="#000000" stroke="none">
<path d="M3846 2089 c-31 -25 -34 -61 -6 -89 15 -15 33 -20 75 -20 42 0 60 5
75 20 47 47 4 110 -75 110 -28 0 -51 -7 -69 -21z"/>
<path d="M1513 2090 c-87 -18 -132 -56 -139 -117 -7 -55 20 -100 91 -148 38
-26 61 -49 63 -63 5 -32 -21 -37 -88 -17 -32 10 -62 15 -68 11 -13 -8 -23 -62
-15 -81 3 -9 29 -28 57 -43 47 -25 60 -27 166 -27 99 0 122 4 167 23 68 31 94
61 100 115 5 38 1 48 -24 76 -15 18 -60 49 -98 69 -49 26 -70 43 -70 56 0 32
28 42 81 28 35 -9 50 -10 60 -1 17 14 18 73 2 86 -40 31 -204 50 -285 33z"/>
<path d="M4997 2089 c-70 -16 -116 -47 -153 -103 -108 -164 -3 -369 196 -384
40 -3 82 1 105 8 53 17 114 76 141 135 31 66 33 170 4 229 -46 96 -170 144
-293 115z m179 -85 c46 -34 67 -70 72 -123 13 -138 -97 -240 -229 -212 -86 19
-137 68 -153 150 -13 71 39 166 109 198 46 20 167 13 201 -13z"/>
<path d="M4937 1973 c-4 -3 -7 -55 -7 -114 0 -116 2 -119 58 -119 53 0 72 11
72 38 l0 26 29 -32 c29 -31 60 -40 95 -26 14 5 13 10 -5 35 -18 26 -19 31 -5
44 8 8 18 24 21 35 9 28 -24 92 -55 107 -26 13 -192 18 -203 6z m171 -87 c4
-18 -21 -46 -40 -46 -4 0 -8 16 -8 36 0 31 3 35 22 32 13 -2 24 -11 26 -22z"/>
<path d="M2080 1960 c-103 -14 -142 -41 -121 -86 8 -19 16 -24 29 -19 76 33
105 38 131 24 14 -8 27 -25 29 -37 3 -21 0 -22 -68 -22 -81 0 -128 -16 -158
-55 -84 -106 90 -222 201 -135 26 20 26 20 32 0 6 -19 13 -20 108 -18 l102 3
0 132 c0 125 -1 133 -24 157 -45 48 -152 71 -261 56z m70 -231 c0 -39 -1 -40
-32 -37 -26 2 -34 8 -36 26 -6 37 5 52 38 52 28 0 30 -2 30 -41z"/>
<path d="M2708 1935 c-36 -24 -37 -24 -43 -5 -6 18 -15 20 -100 20 -75 0 -94
-3 -99 -16 -3 -9 -6 -78 -6 -154 0 -170 0 -170 105 -170 100 0 105 6 105 126
0 91 1 95 25 106 44 20 54 -1 57 -120 l3 -107 88 -3 c57 -2 94 1 103 9 22 18
19 213 -4 259 -40 80 -157 108 -234 55z"/>
<path d="M4174 1941 c-50 -23 -74 -55 -74 -99 0 -51 16 -70 71 -87 60 -17 79
-31 79 -55 0 -27 -28 -32 -87 -15 -58 17 -73 14 -73 -14 0 -43 73 -71 185 -71
92 0 138 14 169 51 30 35 35 92 11 126 -8 12 -37 29 -64 38 -62 20 -81 40 -59
61 13 13 20 13 60 -5 26 -11 49 -17 52 -14 3 4 6 19 6 35 0 24 -7 32 -42 48
-58 26 -177 27 -234 1z"/>
<path d="M3020 1932 c0 -22 60 -173 101 -254 33 -65 54 -78 127 -78 62 0 87
19 107 80 9 27 20 52 25 55 5 3 21 -21 35 -54 30 -66 52 -81 120 -81 65 0 91
16 115 72 21 49 100 266 100 274 0 3 -24 4 -52 2 l-53 -3 -29 -72 c-17 -40
-35 -73 -40 -73 -6 0 -25 33 -41 73 l-31 72 -69 0 -70 0 -35 -72 c-22 -47 -40
-72 -50 -70 -8 1 -20 27 -30 62 -8 33 -19 66 -23 73 -6 8 -39 12 -108 12 -89
0 -99 -2 -99 -18z"/>
<path d="M3816 1934 c-12 -31 -7 -299 6 -312 7 -7 43 -12 89 -12 109 0 109 0
109 166 0 75 -5 144 -10 155 -9 17 -22 19 -99 19 -72 0 -90 -3 -95 -16z"/>
</g>
</svg>
